<svg width="11" height="6" viewBox="0 0 24 13" fill="none" xmlns="http://www.w3.org/2000/svg">
<path d="M0.706949 0.293132C1.09748 -0.0972617 1.73053 -0.0973372 2.12101 0.293132L11.9999 10.172L21.8788 0.293132L21.954 0.223796C22.3468 -0.096288 22.9269 -0.0728874 23.2929 0.293132C23.6587 0.659024 23.6819 1.2383 23.3622 1.63102L23.2929 1.70719L12.7069 12.2931L12.6357 12.3576L12.6318 12.3595C12.6273 12.3632 12.6226 12.3667 12.6181 12.3703C12.5712 12.4074 12.522 12.4395 12.4706 12.467C12.4562 12.4747 12.4414 12.4815 12.4267 12.4884C12.4143 12.4943 12.4022 12.5007 12.3896 12.506C12.3767 12.5115 12.3635 12.5158 12.3505 12.5207C12.331 12.528 12.3118 12.5361 12.2919 12.5422C12.2848 12.5443 12.2776 12.546 12.2704 12.548C12.2462 12.5548 12.2218 12.5607 12.1972 12.5656C12.1897 12.5671 12.1822 12.5682 12.1747 12.5695C12.154 12.5732 12.1331 12.5759 12.1122 12.5783C12.1012 12.5795 12.0901 12.5803 12.079 12.5812C12.0591 12.5828 12.0394 12.5847 12.0194 12.5851C12.0064 12.5854 11.9934 12.5854 11.9804 12.5851C11.9618 12.5848 11.9433 12.5836 11.9247 12.5822C11.9133 12.5813 11.9019 12.5805 11.8905 12.5793C11.8703 12.5771 11.8501 12.5739 11.83 12.5705C11.8189 12.5686 11.8078 12.5669 11.7968 12.5646C11.7778 12.5607 11.759 12.556 11.7402 12.5509C11.7284 12.5478 11.7166 12.5448 11.705 12.5412C11.6859 12.5353 11.6671 12.5287 11.6484 12.5216C11.6375 12.5176 11.6268 12.5134 11.6161 12.509C11.5983 12.5015 11.5809 12.493 11.5634 12.4845C11.5518 12.4789 11.5397 12.4741 11.5282 12.4679C11.4727 12.4383 11.4193 12.4034 11.3691 12.3625L11.2929 12.2931L0.706949 1.70719C0.316438 1.31667 0.316429 0.683651 0.706949 0.293132Z" fill="black"/>
</svg>
